<svg width="22" height="8" viewBox="0 0 22 8" fill="none" xmlns="http://www.w3.org/2000/svg">
<path d="M15.2591 0.113434C15.1241 0.0448229 14.9496 0.00476496 14.7663 0.000317619C14.6787 -0.00174775 14.5912 0.0062771 14.5094 0.0238838C14.4276 0.0414906 14.3534 0.0682953 14.2913 0.102599C14.2293 0.136904 14.1808 0.177959 14.1489 0.223165C14.1171 0.26837 14.1026 0.31674 14.1063 0.36521V2.53997H0V5.4591H14.1085V7.63507C14.1085 7.73185 14.1781 7.82466 14.3018 7.89309C14.4256 7.96152 14.5935 7.99997 14.7685 7.99997C14.8562 8.00064 14.9432 7.99139 15.0242 7.97277C15.1051 7.95415 15.1784 7.92657 15.2393 7.89171L21.8151 4.26104C21.934 4.18982 22 4.09645 22 3.99953C22 3.90261 21.934 3.80925 21.8151 3.73803L15.2591 0.113434Z" fill="#5869D7"/>
</svg>
