<svg width="22" height="12" viewBox="0 0 22 12" fill="none" xmlns="http://www.w3.org/2000/svg">
<path d="M14.8088 0.217336C14.7392 0.152843 14.6529 0.100263 14.5555 0.0629492C14.4581 0.0256355 14.3517 0.00440673 14.2431 0.000616153C14.1345 -0.00317443 14.0261 0.0105564 13.9247 0.0409333C13.8234 0.0713101 13.7314 0.117667 13.6545 0.177047C13.5776 0.236428 13.5176 0.30753 13.4783 0.38582C13.439 0.46411 13.4212 0.54787 13.4261 0.631762C13.431 0.715653 13.4585 0.797834 13.5068 0.873065C13.5551 0.948297 13.6231 1.01493 13.7066 1.06871L19.3298 5.41754H0.743155C0.542511 5.42576 0.353594 5.49312 0.215333 5.60574C0.0770714 5.71836 0 5.86765 0 6.02286C0 6.17807 0.0770714 6.32737 0.215333 6.43999C0.353594 6.55261 0.542511 6.61997 0.743155 6.62819H19.3298L13.6978 10.9719C13.5561 11.0866 13.477 11.239 13.477 11.3976C13.477 11.5562 13.5561 11.7086 13.6978 11.8233C13.7701 11.8793 13.856 11.9237 13.9506 11.9541C14.0451 11.9844 14.1465 12 14.2489 12C14.3513 12 14.4527 11.9844 14.5472 11.9541C14.6418 11.9237 14.7277 11.8793 14.8 11.8233L21.7656 6.44259C21.8397 6.38747 21.8987 6.32135 21.939 6.24821C21.9792 6.17506 22 6.09639 22 6.0169C22 5.93742 21.9792 5.85874 21.939 5.7856C21.8987 5.71245 21.8397 5.64634 21.7656 5.59122L14.8088 0.217336Z" fill="#5869D7"/>
</svg>
