<svg width="37" height="35" viewBox="0 0 37 35" fill="none" xmlns="http://www.w3.org/2000/svg">
<path d="M18.3358 -3.43039e-05C3.73577 -0.0367843 0.0766484 3.45446 0.0383234 17.4545C-1.55756e-06 31.4545 3.63905 34.9632 18.239 35C32.839 35.0367 36.5 31.5455 36.5383 17.5455C36.5767 3.54547 32.9358 0.0367157 18.3358 -3.43039e-05ZM15.2935 27.0707C13.9118 27.0707 12.5611 26.6778 11.4122 25.9417C10.2634 25.2056 9.36795 24.1594 8.83918 22.9353C8.31042 21.7112 8.17207 20.3643 8.44163 19.0648C8.7112 17.7653 9.37656 16.5717 10.3536 15.6348C11.3306 14.6979 12.5754 14.0599 13.9306 13.8014C15.2857 13.543 16.6904 13.6756 17.967 14.1826C19.2435 14.6897 20.3346 15.5483 21.1022 16.6499C21.8699 17.7516 22.2796 19.0468 22.2796 20.3717C22.2772 22.1477 21.5404 23.8503 20.2307 25.1061C18.9211 26.3619 17.1456 27.0684 15.2935 27.0707ZM27.9827 26.796H24.5609V11.4852H8.5921V8.20397H27.9827V26.796Z" fill="black"/>
<path d="M15.2935 16.954C14.5886 16.954 13.8995 17.1544 13.3133 17.53C12.7272 17.9055 12.2704 18.4393 12.0006 19.0638C11.7308 19.6883 11.6602 20.3755 11.7978 21.0385C11.9353 21.7015 12.2748 22.3105 12.7732 22.7885C13.2717 23.2664 13.9068 23.592 14.5982 23.7238C15.2896 23.8557 16.0062 23.788 16.6575 23.5293C17.3088 23.2707 17.8654 22.8326 18.2571 22.2706C18.6487 21.7085 18.8577 21.0477 18.8577 20.3718C18.8568 19.4656 18.4809 18.5968 17.8127 17.9561C17.1445 17.3153 16.2385 16.9549 15.2935 16.954Z" fill="black"/>
</svg>
