<svg width="32" height="32" viewBox="0 0 32 32" fill="none" xmlns="http://www.w3.org/2000/svg">
<g clip-path="url(#clip0_23_2)">
<path d="M15.9375 -0.312517C16.7361 -0.32863 17.5346 -0.344744 18.3574 -0.361345C22.4513 -0.364737 25.45 -0.185331 28.6353 1.96547C29.5794 2.60292 30.4017 3.42572 30.9387 4.43031C32.7766 7.8684 32.3282 12.0289 32.3125 15.9375C32.3286 16.7361 32.3447 17.5346 32.3613 18.3574C32.3647 22.4513 32.1853 25.45 30.0345 28.6353C29.397 29.5794 28.5742 30.4017 27.5697 30.9387C24.1316 32.7766 19.9711 32.3282 16.0625 32.3125C15.2639 32.3286 14.4653 32.3447 13.6426 32.3613C9.54866 32.3647 6.54998 32.1853 3.36464 30.0345C2.42058 29.397 1.5983 28.5742 1.06127 27.5697C-0.776672 24.1316 -0.328214 19.9711 -0.312517 16.0625C-0.32863 15.2639 -0.344744 14.4653 -0.361345 13.6426C-0.364737 9.54866 -0.185331 6.54998 1.96547 3.36464C2.60292 2.42058 3.42572 1.5983 4.43031 1.06127C7.8684 -0.776672 12.0289 -0.328214 15.9375 -0.312517Z" fill="white"/>
<path d="M8 8C13.28 8 18.56 8 24 8C24 13.61 24 19.22 24 25C23.01 25 22.02 25 21 25C21 20.38 21 15.76 21 11C16.71 11 12.42 11 8 11C8 10.01 8 9.02 8 8Z" fill="#191A1B"/>
<path d="M8 17.91C8 14.646 10.646 12 13.91 12H14.28C17.544 12 20.19 14.646 20.19 17.91C20.19 21.174 17.544 23.82 14.28 23.82H13.91C10.646 23.82 8 21.174 8 17.91Z" fill="#191A1B"/>
<path d="M11.4963 17.5188C11.7724 16.138 13.1005 15.2201 14.4812 15.4963C15.862 15.7724 16.7799 17.1005 16.5037 18.4812C16.2276 19.862 14.8995 20.7799 13.5188 20.5037C12.138 20.2276 11.2201 18.8995 11.4963 17.5188Z" fill="white"/>
</g>
<defs>
<clipPath id="clip0_23_2">
<rect width="32" height="32" fill="white"/>
</clipPath>
</defs>
</svg>
